<svg width="47" height="39" fill="none" xmlns="http://www.w3.org/2000/svg"><path d="M46.577 4.793c-.331-.265-.796-.328-1.212-.203-1.549.466-2.714 1.395-3.274 1.91a5.853 5.853 0 00-3.188 0c-.567-.522-1.754-1.466-3.33-1.926a1.27 1.27 0 00-1.3.355c-.272.303-.34.72-.209 1.095a565.52 565.52 0 001.253 3.49 3.9 3.9 0 00-.18.959 5.81 5.81 0 00.015.913l-.44.866c-.289.567-.866.96-1.536 1.046-2.436.312-7.178.941-11.567 1.655-5.681.924-7.932 1.532-8.897 1.906A8.064 8.064 0 009.35 14.16c-2.074-.9-5.542-2.856-5.48-5.851.058-2.71 1.164-4.312 2.08-5.178.392-.37.598-.879.564-1.396a1.805 1.805 0 00-.74-1.327c-.847-.629-2.057-.52-2.754.249C.697 3.212.14 6.75.016 8.632c-.125 1.897.475 3.652 1.786 5.217.94 1.122 2.223 2.122 3.813 2.972 1.542.824 2.656 2.139 3.138 3.703.042.137.062.28.06.423l-.016.723a8.235 8.235 0 01-.09 1.056l-.53 3.499c-.206 1.372-1.156 2.527-2.485 3.16-.923.44-1.45 1.378-1.313 2.333l.966 6.678c.05.346.368.604.744.604h3.972c.16 0 .321-.04.452-.126a.672.672 0 00.292-.757l-.043-.143c-.312-1.042-1.166-1.84-2.252-2.146l-.186-1.429c-.053-.4.192-.784.597-.933l3.795-1.4c0 .037-.002.074-.005.11l-.001.013c-.037.66-.065 1.255-.083 1.768a2.45 2.45 0 00.802 1.884l3.185 2.955a.78.78 0 00.531.204h4.606c.396 0 .73-.3.751-.668.075-1.277-.894-2.382-2.259-2.574l-1.317-.185-.544-.793a1.083 1.083 0 01.022-1.27l3.593-4.879c1.091-.312 5.695-1.547 8.395-.962.036.33.134.652.292.953l5.237 9.986c.125.24.388.392.675.392h3.562a.825.825 0 00.445-.121.673.673 0 00.304-.744l-.242-.898c-.233-.866-.93-1.53-1.809-1.79l.872-7.038c.037-.293.13-.578.279-.84.542-.961 1.607-2.81 2.642-4.37a9.512 9.512 0 001.512-4.077c.268-2.192.794-4.992.925-5.674.578-.768.844-1.784.77-2.975a3.9 3.9 0 00-.18-.96c.226-.62.871-2.403 1.264-3.518.151-.43.013-.901-.363-1.202zM8.366 32.172c-1.037.383-1.667 1.367-1.533 2.395l.251 1.921c.042.32.314.57.658.608.436.047.827.232 1.118.511H6.746l-.879-6.074c-.053-.372.152-.737.512-.909 1.667-.796 2.852-2.25 3.231-3.941 1.351 1.477 2.315 2.874 2.783 4.003l-4.027 1.486zM41.37 22.47c-1.058 1.595-2.141 3.473-2.693 4.451a3.594 3.594 0 00-.44 1.33l-.412 3.32-.907-4.163a1.353 1.353 0 01.27-1.13l2.068-2.61c1.143-1.442 1.663-3.218 1.465-4.998-.043-.383-.412-.661-.824-.622-.413.04-.712.382-.67.765.16 1.436-.259 2.867-1.18 4.03l-2.069 2.61a2.669 2.669 0 00-.531 2.23l1.846 8.48c.071.324.379.558.736.558.56 0 1.044.351 1.18.855l.008.031h-2.151l-5.032-9.594a1.339 1.339 0 01-.146-.786l.745-6.129c.046-.382-.25-.727-.662-.77-.413-.043-.784.232-.83.614l-.647 5.327c-2.45-.43-5.818.235-7.73.708a3.333 3.333 0 00-.755-2.695l-1.097-1.314a.79.79 0 00-1.053-.124.663.663 0 00-.134.977l1.097 1.314c.614.735.646 1.745.08 2.512l-3.738 5.078a2.39 2.39 0 00-.049 2.803l.728 1.06c.116.17.306.285.52.315l1.655.233c.34.047.623.224.797.471h-3.359l-2.965-2.75a1.115 1.115 0 01-.364-.854c.018-.502.045-1.086.082-1.734.167-2.23-2.182-5.12-3.598-6.645a1.37 1.37 0 01-.376-.963l.085-4.007c.002-.07-.123-.513-.123-.513-.59-1.914-1.95-3.522-3.833-4.527-4.236-2.264-4.975-5-4.85-6.896C1.78 4.734 3.29 2.52 4.168 1.554a.504.504 0 01.668-.059.432.432 0 01.18.323.42.42 0 01-.136.337C3.771 3.2 2.437 5.113 2.37 8.282c-.08 3.783 3.94 6.097 6.345 7.14 1.288.558 2.366 1.502 3.036 2.656l.042.07c.11.172.295.291.506.328a.796.796 0 00.607-.14c.782-.58 6.613-1.885 20.477-3.658.992-.127 1.861-.635 2.413-1.39.14.209.298.401.48.575.76.73 1.85 1.112 3.158 1.112l1.968-.001h.013c.706.015 1.351-.08 1.919-.278a84.715 84.715 0 00-.664 4.27 8.175 8.175 0 01-1.3 3.504zm2.81-13.2a.649.649 0 00.001.484c.1.248.16.516.177.797.063 1.022-.185 1.832-.718 2.343-.49.47-1.25.707-2.196.686h-.021c-.008 0-1.86-.002-1.896 0-.935.017-1.687-.22-2.173-.686-.532-.51-.78-1.32-.718-2.343a2.57 2.57 0 01.177-.797.65.65 0 00.002-.48l-.001-.004a630.08 630.08 0 01-1.145-3.178 7.46 7.46 0 012.448 1.663.79.79 0 00.868.196 4.204 4.204 0 013.024 0 .792.792 0 00.867-.194 7.46 7.46 0 012.449-1.665A595.049 595.049 0 0144.18 9.27z" fill="#FFFDFB"/><path d="M36.814 9.27l.001.006c.441-1.151.441-1.151 1.302-1.52a7.46 7.46 0 00-2.448-1.663c.458 1.285 1.073 2.98 1.145 3.178zm8.511-3.177a7.46 7.46 0 00-2.45 1.665c1.245.363 1.259.632 1.304 1.484l.001.03c.07-.195.687-1.892 1.145-3.179zM4.167 1.554c-.877.966-2.388 3.18-2.652 7.164l.855-.436c.067-3.169 1.4-5.082 2.51-6.127a.42.42 0 00.135-.337.432.432 0 00-.18-.323.504.504 0 00-.668.06z" fill="#FFFDFB"/></svg>