<svg width="53" height="35" fill="none" xmlns="http://www.w3.org/2000/svg"><path d="M28.159 18.617c3.275 0 5.955 3.443 5.955 4.303 0 .86-2.68 3.73-5.955 3.73s-5.657-3.73-5.657-3.73 2.382-4.303 5.657-4.303z" fill="#FFFDFB"/><path d="M18.928 19.478l3.573 3.442m0 0l-3.573 3.443m3.573-3.443s2.383 3.73 5.658 3.73c3.275 0 5.955-2.87 5.955-3.73 0-.86-2.68-4.303-5.955-4.303s-5.657 4.303-5.657 4.303z" stroke="#FFFDFB" stroke-width="2" stroke-linecap="round" stroke-linejoin="round"/><path d="M49.163 10.96h0c-.07-.476-.503-.856-1.042-.856h-4.472l-.09-.387c-.65-2.81-3.22-3.654-3.515-3.748l-.197-.063-.095-.183c-1.39-2.682-4.26-2.816-4.581-2.827l-.203-.007-.14-.146c-1.7-1.764-4-1.782-5.232-1.477l-.195.048-.174-.1c-1.093-.625-3.306-1.231-5.456 0l-.174.1-.195-.048C22.17.961 19.87.98 18.173 2.743l-.142.146-.202.007c-.319.01-3.193.146-4.582 2.827l-.095.183-.196.063c-.3.096-2.867.943-3.516 3.748l-.09.387H4.88c-.54 0-.972.38-1.042.857h0L.51 33.368h0a.956.956 0 00.241.782m48.412-23.19L.751 34.15m48.412-23.19l3.327 22.408a.958.958 0 01-.241.782m-3.086-23.19l3.086 23.19m-51.498 0c.198.22.49.35.802.35h49.894c.312 0 .604-.13.802-.35m-51.498 0H52.25M15.338 6.14h0a2.034 2.034 0 01-1.691 1.454 2.468 2.468 0 00-.245.167 9.842 9.842 0 00-1.393 1.345h29.055a14.218 14.218 0 00-.628-.865 9.102 9.102 0 00-.472-.56 2.781 2.781 0 00-.099-.1 2.03 2.03 0 01-1.607-1.441h-22.92zm0 0c.096-.347.508-.745 1.15-1.046.626-.293 1.299-.412 1.714-.345a2.075 2.075 0 002.092-.927c.213-.339.637-.63 1.155-.777.517-.147 1.044-.127 1.427.053a2.1 2.1 0 002.275-.316c.307-.271.805-.435 1.348-.435s1.041.163 1.35.435a2.1 2.1 0 002.275.316h0M15.338 6.14l14.786-3.042m0 0c.368-.173 1.043-.206 1.743-.049.338.076.655.19.912.332.262.144.433.299.522.44m-3.177-.723l5.27 1.651m0 0h0a2.076 2.076 0 01-2.093-.927m2.093.927c.424-.069 1.097.054 1.721.35m-1.72-.35l1.72.35m-3.814-1.277l.424-.266-.424.266s0 0 0 0zm3.814 1.277c.64.304 1.049.702 1.143 1.04L37.115 5.1zM13.482 6.607h0a.973.973 0 00-.37.14 3.44 3.44 0 00-.314.216 9.143 9.143 0 00-.753.65c-.525.501-1.117 1.16-1.44 1.753l-.403.739h32.596l-.404-.74A13.347 13.347 0 0040.695 7a3.016 3.016 0 00-.21-.207 1.078 1.078 0 00-.112-.088l-.002-.001a.592.592 0 00-.257-.097h0a1.036 1.036 0 01-.893-.735h0c-.213-.769-.96-1.337-1.677-1.677-.733-.347-1.618-.546-2.31-.433a1.076 1.076 0 01-1.086-.472h0c-.21-.336-.538-.594-.888-.786a4.529 4.529 0 00-1.174-.43c-.8-.18-1.732-.19-2.388.12a1.1 1.1 0 01-1.188-.163h0c-.54-.475-1.298-.684-2.011-.684-.713 0-1.47.21-2.009.684h0a1.1 1.1 0 01-1.188.162h0c-.655-.309-1.442-.305-2.126-.11-.684.194-1.35.603-1.729 1.207h0a1.075 1.075 0 01-1.084.472h0c-.682-.11-1.565.082-2.3.427-.719.337-1.472.904-1.689 1.683a1.036 1.036 0 01-.892.735zm.186.976h-.002.002zM1.062 33.658l-.088.575h51.051l-.087-.575-3.479-22.862-.064-.424H4.605l-.065.424-3.478 22.862z" fill="#FFFDFB" stroke="#FFFDFB"/></svg>