<svg width="47" height="37" fill="none" xmlns="http://www.w3.org/2000/svg"><path d="M46.999 14.624c-.019-.406-.258-1.16-1.65-1.64L8.234.21C6.33-.446 4.22.486 3.527 2.287L2.523 4.9l-2.26 5.88c-.693 1.8.291 3.799 2.194 4.454l10.817 3.723a3.984 3.984 0 00.884 3.247l-2.304 5.993a.742.742 0 01-.697.461h-6.75v-2.085c0-1.15-.989-2.086-2.204-2.086H.734c-.405 0-.734.311-.734.695v11.123c0 .384.329.695.734.695h1.47c1.214 0 2.202-.936 2.202-2.086V32.83h6.751c2.156 0 4.1-1.288 4.837-3.206l2.256-5.867c1.29-.171 2.464-.885 3.16-2l12.641 4.351c.413.142.836.21 1.252.21 1.263 0 2.462-.621 3.134-1.658l1.45.5a1.544 1.544 0 001.123-.047c.355-.156.624-.435.759-.784l2.01-5.227c.244-.636-.035-1.333-.627-1.668l2.354-1.039c1.343-.592 1.511-1.363 1.493-1.77zM2.937 34.914c0 .384-.329.696-.734.696H1.47v-9.733h.734c.405 0 .735.312.735.696v8.341zm11.677-5.767c-.527 1.37-1.916 2.292-3.457 2.292h-6.75v-1.39h6.75c.926 0 1.76-.554 2.077-1.377l2.108-5.482a4.6 4.6 0 001.366.511l-2.094 5.447zm3.112-6.744l-.05.001c-.35.004-.707-.05-1.056-.17a2.979 2.979 0 01-1.056-.627.705.705 0 00-.088-.085 2.675 2.675 0 01-.785-2.077l5.302 1.824a2.964 2.964 0 01-2.267 1.134zM42.4 18.625l-2.01 5.227-1.38-.476 1.905-4.955.39-.172 1.095.376zm2.486-3.491l-3.925 1.733h-.002l-.94.415-1.103.487c-1.294.571-3.52.663-4.862.201L5.91 8.286c-.381-.13.577.53.439.891-.139.361-1.322.285-.941.416l28.143 9.684c.74.255 1.65.378 2.58.378 1.017 0 2.055-.149 2.914-.437l-1.668 4.336c-.415 1.08-1.682 1.64-2.824 1.246L2.96 13.928c-1.141-.394-1.732-1.593-1.317-2.673L2.9 7.987c.419.61 1.042 1.1 1.818 1.368l.69.238c.382.131.803-.055.942-.416.139-.36-.058-.76-.439-.89l-.69-.238c-1.142-.394-1.732-1.592-1.317-2.673l.251-.654.754-1.96c.415-1.08 1.682-1.64 2.824-1.246l37.114 12.775c.472.162.646.332.682.394-.03.065-.188.248-.643.449z" fill="#FFFDFB"/><path d="M40.96 16.867l3.925-1.733c.455-.2.613-.384.643-.449-.036-.062-.21-.232-.682-.394L7.732 1.516c-1.142-.393-2.409.166-2.824 1.247l-.754 1.96-.251.653c-.415 1.08.175 2.28 1.317 2.673l.69.237 28.143 9.684c1.342.462 3.568.37 4.862-.2l1.102-.487h.001l.94-.416h.002z" fill="#FFFDFB"/></svg>