<svg width="51" height="31" fill="none" xmlns="http://www.w3.org/2000/svg"><path d="M50.833 17.553c-.223-.225-4.455-5.513-13.7-5.682-.89-1.575-4.287-6.695-9.8-6.695h-.167L24.716.45C24.549.17 24.27 0 23.992 0h-3.787c-.334 0-.612.169-.724.45l-2.227 4.67h-.724c-.223 0-5.458-.394-10.915 6.695H1.383c-.39 0-.724.281-.835.675-.056.338-1.727 8.44 1.058 11.927.89 1.07 2.06 1.632 3.508 1.632h1.17A5.73 5.73 0 0011.963 31a5.73 5.73 0 005.68-4.951h16.26A5.73 5.73 0 0039.584 31a5.73 5.73 0 005.68-4.951h4.9a.86.86 0 00.836-.844V18.06c0-.169-.056-.394-.167-.506zm-23.5-10.745c3.898 0 6.571 3.263 7.796 5.063H23.045V6.808h4.288zm-6.571-5.12h2.729l1.782 3.488H19.09l1.67-3.488zm-4.288 5.12h4.956v5.063H7.787c4.51-5.232 8.576-5.063 8.687-5.063zm-4.51 22.56c-2.228 0-4.066-1.856-4.066-4.107 0-2.25 1.838-4.107 4.065-4.107 2.228 0 4.066 1.857 4.066 4.107.055 2.25-1.782 4.107-4.066 4.107zm27.62 0c-2.227 0-4.065-1.856-4.065-4.107 0-2.25 1.838-4.107 4.065-4.107 2.228 0 4.065 1.857 4.065 4.107s-1.782 4.107-4.065 4.107zm9.745-4.95h-4.065a5.73 5.73 0 00-5.68-4.952 5.73 5.73 0 00-5.68 4.951h-16.26a5.73 5.73 0 00-5.68-4.95 5.73 5.73 0 00-5.68 4.95h-1.17c-.947 0-1.67-.337-2.228-1.012-1.726-2.195-1.28-7.314-.835-9.846h34.582c7.74 0 11.805 3.882 12.696 4.839v6.02z" fill="#FFFDFB"/><path d="M20.762 1.688h2.729l1.782 3.488H19.09l1.67-3.488zm-8.799 27.68c-2.227 0-4.065-1.856-4.065-4.107 0-2.25 1.838-4.107 4.065-4.107 2.228 0 4.066 1.857 4.066 4.107.055 2.25-1.782 4.107-4.066 4.107zm27.621 0c-2.227 0-4.065-1.856-4.065-4.107 0-2.25 1.838-4.107 4.065-4.107 2.228 0 4.065 1.857 4.065 4.107s-1.782 4.107-4.065 4.107z" fill="#FFFDFB"/></svg>