<svg xmlns="http://www.w3.org/2000/svg" xmlns:xlink="http://www.w3.org/1999/xlink"><symbol id="icon-cctv"><path d="M46.999 14.624c-.019-.406-.258-1.16-1.65-1.64L8.234.21C6.33-.446 4.22.486 3.527 2.287L2.523 4.9l-2.26 5.88c-.693 1.8.291 3.799 2.194 4.454l10.817 3.723a3.984 3.984 0 00.884 3.247l-2.304 5.993a.742.742 0 01-.697.461h-6.75v-2.085c0-1.15-.989-2.086-2.204-2.086H.734c-.405 0-.734.311-.734.695v11.123c0 .384.329.695.734.695h1.47c1.214 0 2.202-.936 2.202-2.086V32.83h6.751c2.156 0 4.1-1.288 4.837-3.206l2.256-5.867c1.29-.171 2.464-.885 3.16-2l12.641 4.351c.413.142.836.21 1.252.21 1.263 0 2.462-.621 3.134-1.658l1.45.5a1.544 1.544 0 001.123-.047c.355-.156.624-.435.759-.784l2.01-5.227c.244-.636-.035-1.333-.627-1.668l2.354-1.039c1.343-.592 1.511-1.363 1.493-1.77zM2.937 34.914c0 .384-.329.696-.734.696H1.47v-9.733h.734c.405 0 .735.312.735.696v8.341zm11.677-5.767c-.527 1.37-1.916 2.292-3.457 2.292h-6.75v-1.39h6.75c.926 0 1.76-.554 2.077-1.377l2.108-5.482a4.6 4.6 0 001.366.511l-2.094 5.447zm3.112-6.744l-.05.001c-.35.004-.707-.05-1.056-.17a2.979 2.979 0 01-1.056-.627.705.705 0 00-.088-.085 2.675 2.675 0 01-.785-2.077l5.302 1.824a2.964 2.964 0 01-2.267 1.134zM42.4 18.625l-2.01 5.227-1.38-.476 1.905-4.955.39-.172 1.095.376zm2.486-3.491l-3.925 1.733h-.002l-.94.415-1.103.487c-1.294.571-3.52.663-4.862.201L5.91 8.286c-.381-.13.577.53.439.891-.139.361-1.322.285-.941.416l28.143 9.684c.74.255 1.65.378 2.58.378 1.017 0 2.055-.149 2.914-.437l-1.668 4.336c-.415 1.08-1.682 1.64-2.824 1.246L2.96 13.928c-1.141-.394-1.732-1.593-1.317-2.673L2.9 7.987c.419.61 1.042 1.1 1.818 1.368l.69.238c.382.131.803-.055.942-.416.139-.36-.058-.76-.439-.89l-.69-.238c-1.142-.394-1.732-1.592-1.317-2.673l.251-.654.754-1.96c.415-1.08 1.682-1.64 2.824-1.246l37.114 12.775c.472.162.646.332.682.394-.03.065-.188.248-.643.449z" fill="#FFFDFB"/><path d="M40.96 16.867l3.925-1.733c.455-.2.613-.384.643-.449-.036-.062-.21-.232-.682-.394L7.732 1.516c-1.142-.393-2.409.166-2.824 1.247l-.754 1.96-.251.653c-.415 1.08.175 2.28 1.317 2.673l.69.237 28.143 9.684c1.342.462 3.568.37 4.862-.2l1.102-.487h.001l.94-.416h.002z" fill="#FFFDFB"/></symbol><symbol id="icon-cross"><path d="M1 1l14 14m0-14L1 15" stroke="#1A212F" stroke-width="2" stroke-linecap="round" stroke-linejoin="round"/></symbol><symbol id="icon-food"><path d="M28.159 18.617c3.275 0 5.955 3.443 5.955 4.303 0 .86-2.68 3.73-5.955 3.73s-5.657-3.73-5.657-3.73 2.382-4.303 5.657-4.303z" fill="#FFFDFB"/><path d="M18.928 19.478l3.573 3.442m0 0l-3.573 3.443m3.573-3.443s2.383 3.73 5.658 3.73c3.275 0 5.955-2.87 5.955-3.73 0-.86-2.68-4.303-5.955-4.303s-5.657 4.303-5.657 4.303z" stroke="#FFFDFB" stroke-width="2" stroke-linecap="round" stroke-linejoin="round"/><path d="M49.163 10.96h0c-.07-.476-.503-.856-1.042-.856h-4.472l-.09-.387c-.65-2.81-3.22-3.654-3.515-3.748l-.197-.063-.095-.183c-1.39-2.682-4.26-2.816-4.581-2.827l-.203-.007-.14-.146c-1.7-1.764-4-1.782-5.232-1.477l-.195.048-.174-.1c-1.093-.625-3.306-1.231-5.456 0l-.174.1-.195-.048C22.17.961 19.87.98 18.173 2.743l-.142.146-.202.007c-.319.01-3.193.146-4.582 2.827l-.095.183-.196.063c-.3.096-2.867.943-3.516 3.748l-.09.387H4.88c-.54 0-.972.38-1.042.857h0L.51 33.368h0a.956.956 0 00.241.782m48.412-23.19L.751 34.15m48.412-23.19l3.327 22.408a.958.958 0 01-.241.782m-3.086-23.19l3.086 23.19m-51.498 0c.198.22.49.35.802.35h49.894c.312 0 .604-.13.802-.35m-51.498 0H52.25M15.338 6.14h0a2.034 2.034 0 01-1.691 1.454 2.468 2.468 0 00-.245.167 9.842 9.842 0 00-1.393 1.345h29.055a14.218 14.218 0 00-.628-.865 9.102 9.102 0 00-.472-.56 2.781 2.781 0 00-.099-.1 2.03 2.03 0 01-1.607-1.441h-22.92zm0 0c.096-.347.508-.745 1.15-1.046.626-.293 1.299-.412 1.714-.345a2.075 2.075 0 002.092-.927c.213-.339.637-.63 1.155-.777.517-.147 1.044-.127 1.427.053a2.1 2.1 0 002.275-.316c.307-.271.805-.435 1.348-.435s1.041.163 1.35.435a2.1 2.1 0 002.275.316h0M15.338 6.14l14.786-3.042m0 0c.368-.173 1.043-.206 1.743-.049.338.076.655.19.912.332.262.144.433.299.522.44m-3.177-.723l5.27 1.651m0 0h0a2.076 2.076 0 01-2.093-.927m2.093.927c.424-.069 1.097.054 1.721.35m-1.72-.35l1.72.35m-3.814-1.277l.424-.266-.424.266s0 0 0 0zm3.814 1.277c.64.304 1.049.702 1.143 1.04L37.115 5.1zM13.482 6.607h0a.973.973 0 00-.37.14 3.44 3.44 0 00-.314.216 9.143 9.143 0 00-.753.65c-.525.501-1.117 1.16-1.44 1.753l-.403.739h32.596l-.404-.74A13.347 13.347 0 0040.695 7a3.016 3.016 0 00-.21-.207 1.078 1.078 0 00-.112-.088l-.002-.001a.592.592 0 00-.257-.097h0a1.036 1.036 0 01-.893-.735h0c-.213-.769-.96-1.337-1.677-1.677-.733-.347-1.618-.546-2.31-.433a1.076 1.076 0 01-1.086-.472h0c-.21-.336-.538-.594-.888-.786a4.529 4.529 0 00-1.174-.43c-.8-.18-1.732-.19-2.388.12a1.1 1.1 0 01-1.188-.163h0c-.54-.475-1.298-.684-2.011-.684-.713 0-1.47.21-2.009.684h0a1.1 1.1 0 01-1.188.162h0c-.655-.309-1.442-.305-2.126-.11-.684.194-1.35.603-1.729 1.207h0a1.075 1.075 0 01-1.084.472h0c-.682-.11-1.565.082-2.3.427-.719.337-1.472.904-1.689 1.683a1.036 1.036 0 01-.892.735zm.186.976h-.002.002zM1.062 33.658l-.088.575h51.051l-.087-.575-3.479-22.862-.064-.424H4.605l-.065.424-3.478 22.862z" fill="#FFFDFB" stroke="#FFFDFB"/></symbol><symbol id="icon-logo"><path d="M7.9 48.483c-.081-.973-.662-1.928-2.258-2.01.984-.13 2.338-2.397 1.758-4.082-.484-1.361-1.935-.827-2.79-.567-.16 1.296.21 3.677-1.225 3.985-.064-.68.065-1.814-.112-2.997-.339-1.96-2.725-1.053-3.273-.81.21 2.17.177 2.754.177 5.363.016.89-.08 2.3 0 3.062.226 2.025 2.628 1.49 3.29.794 0-.86-.017-2.609-.065-3.581 1.064-.081 1.257.227 1.29 2.495.015 2.268 2.692 1.847 3.481 1.07-.274-.843-.193-1.913-.274-2.722zm1.398-1.669c0 4.698 2.418 5.087 4.111 5.038 1.564 0 4.127-.437 4.143-5.038-.016-3.937-1.757-5.33-4.095-5.33-2.466 0-4.159 1.522-4.159 5.33zm4.16-2.69c.177 0 .854-.259.854 2.576 0 1.847-.29 2.9-.87 2.9-.484 0-.871-.437-.823-2.9 0-2.236.564-2.576.838-2.576zm7.412.341c0 .923-.017 1.944.031 5.087.017 1.264.065 2.3 1.516 2.268 1.29 0 1.612-.518 1.757-.68.048-1.41-.048-4.488-.08-6.627.354 0 .693 0 .999-.016 1.032-.032 1.386-.648 1.37-1.507-.016-.972-.806-1.49-1.902-1.49h-3.063c-2.434.016-2.596.016-2.79 0-.45 1.911-.176 2.932 1.678 2.965h.483zm12.234-2.901c-1.129-.113-3.853-.064-5.74.017.21 2.154.226 4.925.194 6.885.032 1.88-.129 3.192 1.838 3.322 1.29.097 2.015.097 3.176 0 1.58-.13 2.224-.989 1.467-2.868-1.306.194-2.515.243-3.273.097 0-.227-.032-.94 0-1.118.726 0 1.516-.032 2.209-.032 1.434 0 1.29-2.317-.016-2.317-.935-.049-1.355.049-2.225-.032v-1.28c.983-.081 1.419-.033 2.24 0 1.548.048 1.548-2.35.13-2.674zm5.036-3.532c-1.064.697-1 1.75-.242 2.382.854.616 2.53.421 3.66-.081 1.031-.47 1.434-1.54.338-2.333-1.628.859-2.709.421-3.756.032zm5.739 4.91c0-.973-.613-1.442-1.58-1.442-1.129 0-1.709.291-2.048 1.328-.403 1.264-1 3.208-1.338 4.553 0-.584.097-4.018.097-4.44 0-1.069-.564-1.441-1.515-1.441-.661 0-1.838.42-1.838.42.097.73.177 1.151.193 2.107.033 1.005 0 2.608.097 5.784.048 1.555.548 2.074 1.806 2.025 2.257-.08 2.402-4.26 3.014-5.784 0 .697-.032 3.11-.032 3.921 0 1.102.097 1.863 1.37 1.863 1.097 0 1.725-.372 1.919-.713-.13-.486-.178-3.434-.178-5.751 0-1.021.017-1.912.033-2.43zm9.339 5.541c-.08-.973-.66-1.928-2.257-2.01.984-.13 2.338-2.397 1.758-4.082-.484-1.361-1.935-.827-2.79-.567-.16 1.296.21 3.677-1.225 3.985-.064-.68.065-1.814-.112-2.997-.339-1.96-2.725-1.053-3.273-.81.21 2.17.177 2.754.177 5.363.016.89-.08 2.3 0 3.062.226 2.025 2.628 1.49 3.289.794 0-.86-.016-2.609-.064-3.581 1.064-.081 1.257.227 1.29 2.495.015 2.268 2.691 1.847 3.481 1.07-.274-.843-.193-1.913-.274-2.722zM63 51.14c-.226-.632-.21-.94-.258-1.848-.129-2.365-.161-4.65-.935-6.22-1.306-2.318-4.675-1.686-6.303-.52-.145 2.803-.63 3.954-.935 7.08-.226 2.285 1.676 2.917 3.45 1.8 0-.276 0-1.232.08-1.459.21 0 1 .016 1.306.016 0 0-.08.94.37 1.442.807.924 2.66.648 3.225-.291zm-4.788-3.192c.113-.875.113-2.69.161-3.078.08-.065.629-.033.693.048.194.762.194 2.155.242 3.03h-1.096z" fill="#1A212F"/><path d="M39 6.995L45.576.42C46.47-.476 48 .158 48 1.423v17.573c0-5.7-4.513-9.166-9-12z" fill="#FF7236"/><path d="M48 18.997c0 8.837-7.163 16.001-16 16.001-8.836 0-16-7.164-16-16.001 0-8.838 7.164-15.002 16-15.002 8.837 0 16 6.164 16 15.002z" fill="#FFAA50"/><path d="M25 18.996c0-7.701 4.422-13.37 10.31-14.7A18.328 18.328 0 0032 3.995c-2.944 0-5.694.697-8.063 1.937L18.424.419C17.53-.476 16 .158 16 1.423v17.573c0-.36 0-.358 0 0 0 8.838 7.163 16.002 16 16.002 1.135 0 2.242-.122 3.31-.347C29.422 33.125 25 26.698 25 18.996z" fill="#FF7236"/><path d="M28.5 28.997c1.933 0 3.5-1.343 3.5-3s-1.567-3-3.5-3-3.5 1.343-3.5 3 1.567 3 3.5 3zm7 0c1.933 0 3.5-1.343 3.5-3s-1.567-3-3.5-3-3.5 1.343-3.5 3 1.567 3 3.5 3z" fill="#FFFDFB"/><path d="M32 25.998a2 2 0 100-4 2 2 0 000 4z" fill="#FF913C"/><path d="M26 19.997a1 1 0 01-1-1v-1a1 1 0 112 0v1a1 1 0 01-1 1zm12 0a1 1 0 01-1-1v-1a1 1 0 112 0v1a1 1 0 01-1 1z" fill="#1A212F"/></symbol><symbol id="icon-menu"><path d="M1 1h22M1 8h22M1 15h22" stroke="#1A212F" stroke-width="2" stroke-linecap="round" stroke-linejoin="round"/></symbol><symbol id="icon-paw"><path d="M16.803 6.525c-2.964 1.7-2.46 6.662.756 6.662 1.387 0 2.587-1.042 3.122-2.375 1.234-3.078-1.333-5.748-3.878-4.287zm-3.045.615c3.557 0 4.622-6.04 1.243-7.034-1.54-.452-3.29.633-3.852 2.617-.631 2.223.61 4.416 2.61 4.416z"/><path d="M12.844 17.89c-.494-.136-1.37-.224-2.288-.237-.97-.014-1.986.055-2.643.237-1.775.495-4.19-.701-3.66-3.186.49-2.296 2.251-2.165 2.668-4.341.42-2.2 2.05-3.262 3.635-3.179 1.466.077 2.894 1.135 3.283 3.179.414 2.178 2.171 2.046 2.66 4.341.532 2.487-1.888 3.676-3.655 3.186zM7.499 7.14c1.006 0 1.87-.585 2.35-1.48C11.276 3.002 8.932-.68 6.256.109 2.87 1.104 3.944 7.14 7.499 7.14z"/><path d="M5.89 11.21c1.143-2.794-1.564-6.208-4.15-5.134C-1.373 7.37 0 12.95 3.425 12.95c1.099 0 2.033-.677 2.467-1.74zm6.954 6.68c-.494-.136-1.371-.224-2.289-.237V7.184c1.467.077 2.895 1.135 3.284 3.179.414 2.178 2.171 2.046 2.66 4.341.532 2.486-1.888 3.676-3.655 3.186z"/></symbol><symbol id="icon-taxi"><path d="M50.833 17.553c-.223-.225-4.455-5.513-13.7-5.682-.89-1.575-4.287-6.695-9.8-6.695h-.167L24.716.45C24.549.17 24.27 0 23.992 0h-3.787c-.334 0-.612.169-.724.45l-2.227 4.67h-.724c-.223 0-5.458-.394-10.915 6.695H1.383c-.39 0-.724.281-.835.675-.056.338-1.727 8.44 1.058 11.927.89 1.07 2.06 1.632 3.508 1.632h1.17A5.73 5.73 0 0011.963 31a5.73 5.73 0 005.68-4.951h16.26A5.73 5.73 0 0039.584 31a5.73 5.73 0 005.68-4.951h4.9a.86.86 0 00.836-.844V18.06c0-.169-.056-.394-.167-.506zm-23.5-10.745c3.898 0 6.571 3.263 7.796 5.063H23.045V6.808h4.288zm-6.571-5.12h2.729l1.782 3.488H19.09l1.67-3.488zm-4.288 5.12h4.956v5.063H7.787c4.51-5.232 8.576-5.063 8.687-5.063zm-4.51 22.56c-2.228 0-4.066-1.856-4.066-4.107 0-2.25 1.838-4.107 4.065-4.107 2.228 0 4.066 1.857 4.066 4.107.055 2.25-1.782 4.107-4.066 4.107zm27.62 0c-2.227 0-4.065-1.856-4.065-4.107 0-2.25 1.838-4.107 4.065-4.107 2.228 0 4.065 1.857 4.065 4.107s-1.782 4.107-4.065 4.107zm9.745-4.95h-4.065a5.73 5.73 0 00-5.68-4.952 5.73 5.73 0 00-5.68 4.951h-16.26a5.73 5.73 0 00-5.68-4.95 5.73 5.73 0 00-5.68 4.95h-1.17c-.947 0-1.67-.337-2.228-1.012-1.726-2.195-1.28-7.314-.835-9.846h34.582c7.74 0 11.805 3.882 12.696 4.839v6.02z" fill="#FFFDFB"/><path d="M20.762 1.688h2.729l1.782 3.488H19.09l1.67-3.488zm-8.799 27.68c-2.227 0-4.065-1.856-4.065-4.107 0-2.25 1.838-4.107 4.065-4.107 2.228 0 4.066 1.857 4.066 4.107.055 2.25-1.782 4.107-4.066 4.107zm27.621 0c-2.227 0-4.065-1.856-4.065-4.107 0-2.25 1.838-4.107 4.065-4.107 2.228 0 4.065 1.857 4.065 4.107s-1.782 4.107-4.065 4.107z" fill="#FFFDFB"/></symbol><symbol id="icon-temperature"><path d="M30.18 12.639a.82.82 0 010 1.639h-7.328a.82.82 0 110-1.64h7.329zm-2.94 4.518a.82.82 0 00-.82-.82h-3.568a.82.82 0 100 1.64h3.568a.82.82 0 00.82-.82zm-5.207 3.698c0 .453.367.82.82.82h7.328a.82.82 0 000-1.64h-7.329a.82.82 0 00-.82.82zm5.206 3.7a.82.82 0 00-.819-.82h-3.568a.82.82 0 100 1.64h3.568a.82.82 0 00.82-.82zm-5.206 3.698c0 .453.367.82.82.82h7.328a.82.82 0 100-1.64h-7.329a.82.82 0 00-.82.82zm1.397 14.88C23.43 49.678 18.175 55 11.715 55S0 49.677 0 43.134c0-4.24 2.198-8.094 5.785-10.226V6.006C5.785 2.694 8.445 0 11.715 0c3.27 0 5.93 2.694 5.93 6.006v26.902c3.587 2.13 5.785 5.984 5.785 10.226zm-1.625 0c0-3.597-1.974-7.555-5.152-9.19l-.633-.325V6.008c0-2.02-2.311-4.368-4.305-4.368-1.993 0-4.304 2.347-4.304 4.368v27.61l-.633.325c-3.179 1.637-5.153 5.594-5.153 9.19 0 5.251 4.907 10.228 10.09 10.228 5.184 0 10.09-4.977 10.09-10.227zm-2.616 0c0 4.174-3.352 7.57-7.474 7.57-4.12 0-7.472-3.396-7.472-7.57 0-3.42 2.97-6.424 6.238-7.304l.43-.116V22.062a.805.805 0 011.61 0v13.65l.43.117c3.268.88 6.238 3.885 6.238 7.305zm-6.445-5.056c-.178-.802-.944-.613-1.755-.425-2.832.65-4.811 3.158-4.811 6.102 0 .834 0 1.727 1.055 1.727.56 0 .69-.93.69-1.763 0-1.497.914-3.73 3.066-4.23.8-.187 1.936-.6 1.755-1.411z" fill="#FFFDFB"/></symbol><symbol id="icon-vet"><path d="M15.074 13.775a4.682 4.682 0 00-.373 1.863c.006 1.292.546 2.518 1.518 3.452a5.478 5.478 0 003.651 1.508 5.634 5.634 0 003.044-.787 5.623 5.623 0 003.043.787 5.485 5.485 0 003.625-1.483c.97-.918 1.518-2.127 1.544-3.407a4.673 4.673 0 00-.537-2.28c-.34-.654-3.1-3.484-4.076-4.521-.244-.26.412.649.134.877-.277.228-1.182-.134-.938.126.884.939 3.392 3.523 3.676 4.067.278.533.413 1.108.401 1.708-.04 1.992-1.74 3.6-3.87 3.661a4.186 4.186 0 01-2.588-.795.707.707 0 00-.828 0 4.19 4.19 0 01-2.589.795c-2.123-.06-3.86-1.727-3.87-3.714a3.506 3.506 0 01.279-1.395c.435-1.026 1.375-2.185 3.143-3.876 1.661-1.589 4.346-1.783 6.246-.451a.701.701 0 00.938-.126.6.6 0 00-.134-.877c-2.436-1.707-5.879-1.459-8.009.578-1.925 1.842-2.919 3.085-3.43 4.29zm4.303-6.299c1.722 0 3.123-1.677 3.123-3.738S21.1 0 19.377 0c-1.722 0-3.123 1.677-3.123 3.738 0 2.06 1.401 3.738 3.123 3.738zm0-6.223c.967 0 1.783 1.138 1.783 2.485s-.816 2.485-1.783 2.485c-.966 0-1.783-1.138-1.783-2.485s.817-2.485 1.783-2.485z" fill="#FFFDFB"/><path d="M19.377 1.253c.967 0 1.783 1.138 1.783 2.485s-.816 2.485-1.783 2.485c-.966 0-1.783-1.138-1.783-2.485s.817-2.485 1.783-2.485zm-6.398 10.702c1.39 0 2.478-1.283 2.478-2.92s-1.089-2.92-2.478-2.92c-1.39 0-2.478 1.283-2.478 2.92s1.088 2.92 2.478 2.92zm0-4.587c.617 0 1.138.763 1.138 1.667s-.521 1.667-1.138 1.667c-.617 0-1.138-.763-1.138-1.667s.52-1.667 1.138-1.667z" fill="#FFFDFB"/><path d="M12.979 7.368c.617 0 1.138.763 1.138 1.667s-.521 1.667-1.138 1.667c-.617 0-1.138-.763-1.138-1.667s.52-1.667 1.138-1.667zm19.615 4.587c1.39 0 2.478-1.283 2.478-2.92s-1.089-2.92-2.478-2.92c-1.39 0-2.479 1.283-2.479 2.92s1.089 2.92 2.479 2.92zm0-4.587c.617 0 1.138.763 1.138 1.667s-.521 1.667-1.138 1.667c-.617 0-1.138-.763-1.138-1.667s.52-1.667 1.138-1.667z" fill="#FFFDFB"/><path d="M32.594 7.368c.617 0 1.138.763 1.138 1.667s-.521 1.667-1.138 1.667c-.617 0-1.138-.763-1.138-1.667s.52-1.667 1.138-1.667zm-5.375.108c1.722 0 3.123-1.677 3.123-3.738S28.94 0 27.219 0c-1.722 0-3.123 1.677-3.123 3.738 0 2.06 1.4 3.738 3.123 3.738zm0-6.223c.966 0 1.783 1.138 1.783 2.485s-.817 2.485-1.783 2.485c-.967 0-1.783-1.138-1.783-2.485s.816-2.485 1.783-2.485z" fill="#FFFDFB"/><path d="M27.219 1.253c.966 0 1.783 1.138 1.783 2.485s-.817 2.485-1.783 2.485c-.967 0-1.783-1.138-1.783-2.485s.816-2.485 1.783-2.485zm12.729 18.685a3.703 3.703 0 00-2.543-.985c-.96 0-1.864.35-2.543.985l-3.944 3.688a3.704 3.704 0 00-2.662-1.105h-5.649c-.37 0 .707.28.707.627 0 .346-1.077.626-.707.626h5.649c1.244 0 2.256.947 2.256 2.11 0 1.163-1.012 2.11-2.256 2.11h-5.649c-.37 0-.67.28-.67.626s.3.627.67.627h5.649c1.983 0 3.597-1.509 3.597-3.363 0-.406-.078-.796-.22-1.157a.143.143 0 00.023-.02l4.154-3.883c.88-.822 2.311-.822 3.19 0 .88.823.88 2.161 0 2.984l-8.326 7.785h-7.68c-.37 0 .32.28.32.627 0 .346-.37.626 0 .626h7.638a.694.694 0 00.473-.183l8.523-7.969c1.403-1.31 1.403-3.444 0-4.756z" fill="#FFFDFB"/><path d="M23.486 31.593h-3.05a.694.694 0 00-.471.181l-2.107 1.946-5.149-4.814a3.823 3.823 0 01-.148-1.056c0-2.242 1.95-4.066 4.348-4.066.04 0 .078-.003.116-.01h5.89c.37 0 .67-.28.67-.626s-.3-.627-.67-.627h-6.537a.703.703 0 00-.3.068c-2.687.37-4.766 2.5-4.853 5.093l-.541-.506a.703.703 0 00-.948 0l-3.55 3.32a.619.619 0 00-.062.067L.181 36.78a.604.604 0 00-.17.416L0 42.344c0 .345.298.626.668.627L11.71 43h.002a.694.694 0 00.474-.184l7.14-6.675a.606.606 0 00.195-.443.606.606 0 00-.196-.443l-.607-.568 1.993-1.84h2.775c.37 0 .67-.281.67-.627s-.3-.627-.67-.627zm-12.05 10.153L1.34 41.72l.009-4.283 5.34-5.585 7.663 7.166-2.918 2.728zm3.906-3.653L7.648 30.9l2.562-2.395 7.694 7.193-2.562 2.395z" fill="#FFFDFB"/></symbol><symbol id="icon-walk"><path d="M46.577 4.793c-.331-.265-.796-.328-1.212-.203-1.549.466-2.714 1.395-3.274 1.91a5.853 5.853 0 00-3.188 0c-.567-.522-1.754-1.466-3.33-1.926a1.27 1.27 0 00-1.3.355c-.272.303-.34.72-.209 1.095a565.52 565.52 0 001.253 3.49 3.9 3.9 0 00-.18.959 5.81 5.81 0 00.015.913l-.44.866c-.289.567-.866.96-1.536 1.046-2.436.312-7.178.941-11.567 1.655-5.681.924-7.932 1.532-8.897 1.906A8.064 8.064 0 009.35 14.16c-2.074-.9-5.542-2.856-5.48-5.851.058-2.71 1.164-4.312 2.08-5.178.392-.37.598-.879.564-1.396a1.805 1.805 0 00-.74-1.327c-.847-.629-2.057-.52-2.754.249C.697 3.212.14 6.75.016 8.632c-.125 1.897.475 3.652 1.786 5.217.94 1.122 2.223 2.122 3.813 2.972 1.542.824 2.656 2.139 3.138 3.703.042.137.062.28.06.423l-.016.723a8.235 8.235 0 01-.09 1.056l-.53 3.499c-.206 1.372-1.156 2.527-2.485 3.16-.923.44-1.45 1.378-1.313 2.333l.966 6.678c.05.346.368.604.744.604h3.972c.16 0 .321-.04.452-.126a.672.672 0 00.292-.757l-.043-.143c-.312-1.042-1.166-1.84-2.252-2.146l-.186-1.429c-.053-.4.192-.784.597-.933l3.795-1.4c0 .037-.002.074-.005.11l-.001.013c-.037.66-.065 1.255-.083 1.768a2.45 2.45 0 00.802 1.884l3.185 2.955a.78.78 0 00.531.204h4.606c.396 0 .73-.3.751-.668.075-1.277-.894-2.382-2.259-2.574l-1.317-.185-.544-.793a1.083 1.083 0 01.022-1.27l3.593-4.879c1.091-.312 5.695-1.547 8.395-.962.036.33.134.652.292.953l5.237 9.986c.125.24.388.392.675.392h3.562a.825.825 0 00.445-.121.673.673 0 00.304-.744l-.242-.898c-.233-.866-.93-1.53-1.809-1.79l.872-7.038c.037-.293.13-.578.279-.84.542-.961 1.607-2.81 2.642-4.37a9.512 9.512 0 001.512-4.077c.268-2.192.794-4.992.925-5.674.578-.768.844-1.784.77-2.975a3.9 3.9 0 00-.18-.96c.226-.62.871-2.403 1.264-3.518.151-.43.013-.901-.363-1.202zM8.366 32.172c-1.037.383-1.667 1.367-1.533 2.395l.251 1.921c.042.32.314.57.658.608.436.047.827.232 1.118.511H6.746l-.879-6.074c-.053-.372.152-.737.512-.909 1.667-.796 2.852-2.25 3.231-3.941 1.351 1.477 2.315 2.874 2.783 4.003l-4.027 1.486zM41.37 22.47c-1.058 1.595-2.141 3.473-2.693 4.451a3.594 3.594 0 00-.44 1.33l-.412 3.32-.907-4.163a1.353 1.353 0 01.27-1.13l2.068-2.61c1.143-1.442 1.663-3.218 1.465-4.998-.043-.383-.412-.661-.824-.622-.413.04-.712.382-.67.765.16 1.436-.259 2.867-1.18 4.03l-2.069 2.61a2.669 2.669 0 00-.531 2.23l1.846 8.48c.071.324.379.558.736.558.56 0 1.044.351 1.18.855l.008.031h-2.151l-5.032-9.594a1.339 1.339 0 01-.146-.786l.745-6.129c.046-.382-.25-.727-.662-.77-.413-.043-.784.232-.83.614l-.647 5.327c-2.45-.43-5.818.235-7.73.708a3.333 3.333 0 00-.755-2.695l-1.097-1.314a.79.79 0 00-1.053-.124.663.663 0 00-.134.977l1.097 1.314c.614.735.646 1.745.08 2.512l-3.738 5.078a2.39 2.39 0 00-.049 2.803l.728 1.06c.116.17.306.285.52.315l1.655.233c.34.047.623.224.797.471h-3.359l-2.965-2.75a1.115 1.115 0 01-.364-.854c.018-.502.045-1.086.082-1.734.167-2.23-2.182-5.12-3.598-6.645a1.37 1.37 0 01-.376-.963l.085-4.007c.002-.07-.123-.513-.123-.513-.59-1.914-1.95-3.522-3.833-4.527-4.236-2.264-4.975-5-4.85-6.896C1.78 4.734 3.29 2.52 4.168 1.554a.504.504 0 01.668-.059.432.432 0 01.18.323.42.42 0 01-.136.337C3.771 3.2 2.437 5.113 2.37 8.282c-.08 3.783 3.94 6.097 6.345 7.14 1.288.558 2.366 1.502 3.036 2.656l.042.07c.11.172.295.291.506.328a.796.796 0 00.607-.14c.782-.58 6.613-1.885 20.477-3.658.992-.127 1.861-.635 2.413-1.39.14.209.298.401.48.575.76.73 1.85 1.112 3.158 1.112l1.968-.001h.013c.706.015 1.351-.08 1.919-.278a84.715 84.715 0 00-.664 4.27 8.175 8.175 0 01-1.3 3.504zm2.81-13.2a.649.649 0 00.001.484c.1.248.16.516.177.797.063 1.022-.185 1.832-.718 2.343-.49.47-1.25.707-2.196.686h-.021c-.008 0-1.86-.002-1.896 0-.935.017-1.687-.22-2.173-.686-.532-.51-.78-1.32-.718-2.343a2.57 2.57 0 01.177-.797.65.65 0 00.002-.48l-.001-.004a630.08 630.08 0 01-1.145-3.178 7.46 7.46 0 012.448 1.663.79.79 0 00.868.196 4.204 4.204 0 013.024 0 .792.792 0 00.867-.194 7.46 7.46 0 012.449-1.665A595.049 595.049 0 0144.18 9.27z" fill="#FFFDFB"/><path d="M36.814 9.27l.001.006c.441-1.151.441-1.151 1.302-1.52a7.46 7.46 0 00-2.448-1.663c.458 1.285 1.073 2.98 1.145 3.178zm8.511-3.177a7.46 7.46 0 00-2.45 1.665c1.245.363 1.259.632 1.304 1.484l.001.03c.07-.195.687-1.892 1.145-3.179zM4.167 1.554c-.877.966-2.388 3.18-2.652 7.164l.855-.436c.067-3.169 1.4-5.082 2.51-6.127a.42.42 0 00.135-.337.432.432 0 00-.18-.323.504.504 0 00-.668.06z" fill="#FFFDFB"/></symbol></svg>